<svg xmlns="http://www.w3.org/2000/svg" width="500" height="500" viewBox="0 0 500 500" version="1.1"><path d="M 132.493 118.992 C 135.273 121.840, 136.618 122.629, 137.180 121.742 C 138.948 118.959, 137.986 117.090, 134.250 116.053 C 128.467 114.447, 128.310 114.709, 132.493 118.992 M 100 118.313 C 100 119.241, 99.888 120.305, 99.750 120.678 C 99.504 121.346, 105.126 123.207, 105.689 122.644 C 105.849 122.485, 104.634 121.065, 102.990 119.490 C 100.650 117.249, 100 116.993, 100 118.313 M 174.639 123.844 C 174.440 124.205, 173.955 125.850, 173.562 127.500 L 172.847 130.500 175.924 127.563 C 177.616 125.948, 179 124.537, 179 124.430 C 179 123.838, 174.944 123.293, 174.639 123.844 M 89.583 158.643 C 88.647 161.084, 89.458 161.336, 93.683 159.917 C 97.352 158.684, 97.403 158.606, 95 157.917 C 91.051 156.784, 90.256 156.890, 89.583 158.643 M 115.250 176.285 C 111.813 177.440, 109 178.663, 109 179.003 C 109 179.344, 111.362 180.221, 114.250 180.953 C 117.138 181.686, 119.983 182.463, 120.573 182.681 C 121.163 182.899, 122.113 181.035, 122.684 178.539 C 123.890 173.267, 124.068 173.321, 115.250 176.285" stroke="none" fill="#012169" fill-rule="evenodd"/><path d="M 105.044 104.659 C 105.836 105.672, 111.102 111.732, 116.747 118.126 C 126.835 129.554, 128.855 131, 134.732 131 C 137.108 131, 135.573 128.487, 127.749 119.575 C 121.582 112.549, 119.239 110.682, 112.052 107.067 C 106.410 104.230, 104.083 103.430, 105.044 104.659 M 144.893 122.472 C 144.308 124.688, 143.116 129.200, 142.245 132.500 C 141.374 135.800, 140.383 138.833, 140.042 139.239 C 139.701 139.646, 130.274 137.480, 119.093 134.427 C 107.912 131.374, 98.255 129.072, 97.632 129.311 C 96.521 129.738, 91.268 148.687, 92.084 149.327 C 92.313 149.506, 101.895 152.188, 113.377 155.287 C 124.859 158.385, 134.396 161.062, 134.569 161.235 C 134.742 161.409, 133.521 166.652, 131.855 172.888 C 130.189 179.124, 129.209 184.609, 129.677 185.077 C 130.856 186.256, 149.181 188.238, 150.040 187.279 C 150.424 186.851, 151.749 182.332, 152.984 177.238 C 154.219 172.144, 155.551 167.778, 155.943 167.535 C 156.335 167.293, 160.526 168.159, 165.256 169.460 C 172.317 171.403, 174.162 171.602, 175.574 170.570 C 176.865 169.625, 177.113 168.590, 176.568 166.406 C 176.170 164.808, 175.357 160.254, 174.763 156.286 L 173.683 149.072 168.422 147.895 C 165.529 147.248, 162.686 146.424, 162.105 146.065 C 161.401 145.630, 162.039 141.757, 164.018 134.456 C 165.652 128.430, 166.991 123.031, 166.994 122.458 C 166.997 121.885, 162.265 120.748, 156.479 119.931 L 145.957 118.445 144.893 122.472 M 96 163.294 C 91.325 164.997, 87.169 166.865, 86.765 167.445 C 85.800 168.831, 85.787 174, 86.749 174 C 88.138 174, 115.492 164.758, 116.315 164.010 C 117.011 163.378, 114.865 162.659, 106 160.553 C 105.175 160.357, 100.675 161.590, 96 163.294 M 160 177.441 C 160 179.681, 161.797 180.256, 163.992 178.718 C 166.314 177.092, 165.648 176, 162.333 176 C 160.968 176, 160 176.598, 160 177.441" stroke="none" fill="#c8102e" fill-rule="evenodd"/><path d="M 101.749 109.944 C 100.261 115.852, 100.266 115.902, 102.718 118.194 C 104.074 119.462, 105.588 121.250, 106.082 122.167 C 106.885 123.656, 106.596 123.727, 103.371 122.837 C 99.372 121.733, 98.194 122.383, 97.779 125.919 C 97.511 128.200, 98.348 128.529, 118.500 134.079 C 130.050 137.259, 139.775 139.555, 140.111 139.181 C 140.447 138.806, 141.846 133.931, 143.220 128.347 L 145.718 118.194 142.675 117.585 C 139.486 116.947, 138.044 118.063, 138.015 121.191 C 137.984 124.663, 136.007 123.875, 131.419 118.560 C 128.821 115.551, 125.364 112.625, 123.736 112.058 C 120.212 110.829, 120.150 110.731, 129.847 121.738 C 137.226 130.114, 137.501 132.390, 130.922 130.634 C 127.279 129.661, 125.144 127.739, 115.595 116.834 C 109.493 109.866, 104.218 104.128, 103.873 104.082 C 103.528 104.037, 102.572 106.675, 101.749 109.944 M 165.082 130.626 C 163.892 135.370, 163.078 139.411, 163.272 139.605 C 164.274 140.607, 171.960 130.994, 172.874 127.594 C 174.148 122.860, 173.716 122, 170.064 122 C 167.358 122, 167.159 122.344, 165.082 130.626 M 161.711 143.998 C 161.327 145.464, 162.308 146.104, 166.935 147.402 C 173.866 149.346, 174 149.350, 174 147.592 C 174 146.765, 171.561 145.360, 168.091 144.188 C 162.443 142.281, 162.162 142.272, 161.711 143.998 M 90.630 152.250 C 89.681 155.792, 89.739 155.863, 94.750 157.332 L 99.500 158.725 93.792 160.532 C 88.925 162.073, 86.023 164.356, 87.305 165.638 C 87.498 165.831, 91.608 164.654, 96.438 163.021 C 105.217 160.053, 105.221 160.053, 111.138 161.698 C 114.393 162.603, 116.706 163.664, 116.278 164.056 C 115.850 164.448, 109.537 166.721, 102.250 169.106 C 94.963 171.491, 89 173.725, 89 174.070 C 89 174.415, 92.713 175.676, 97.250 176.873 L 105.500 179.049 114.438 176.025 C 119.353 174.361, 123.717 173, 124.134 173 C 124.551 173, 124.211 175.294, 123.378 178.099 C 122.545 180.903, 122.007 183.325, 122.182 183.482 C 122.357 183.638, 123.901 184.066, 125.613 184.433 L 128.727 185.099 131.746 173.049 C 133.406 166.422, 134.635 161, 134.478 161 C 134.320 161, 125.065 158.525, 113.910 155.500 C 102.755 152.475, 93.090 150, 92.431 150 C 91.772 150, 90.962 151.012, 90.630 152.250 M 155.547 168.146 C 154.470 171.253, 151 185.956, 151 187.417 C 151 190.008, 152.692 189.255, 157.361 184.587 C 160.359 181.588, 161.447 179.847, 160.754 179.154 C 160.193 178.593, 160.003 177.434, 160.332 176.578 C 160.803 175.349, 161.471 175.229, 163.513 176.005 C 165.600 176.799, 166.666 176.568, 169.049 174.806 C 170.672 173.606, 172 172.313, 172 171.934 C 172 171.554, 169.144 170.526, 165.652 169.649 C 162.161 168.772, 158.565 167.770, 157.661 167.423 C 156.702 167.055, 155.821 167.356, 155.547 168.146 M 286.976 211.162 C 271.373 213.534, 258.454 228.454, 245.912 258.589 C 235.453 283.719, 232.170 314.694, 238.099 332.295 C 242.108 344.193, 252.328 350.260, 268.188 350.156 C 278.490 350.088, 281.809 348.185, 293.031 335.906 C 298.809 329.584, 301.600 327.161, 301.815 328.279 C 302.177 330.159, 299.482 349.352, 297.501 359 C 296.317 364.768, 295.617 366.007, 291.283 370 C 281.334 379.167, 269.030 395.923, 266.968 403.113 C 263.806 414.135, 269.495 423.986, 279.028 423.996 C 284.565 424.002, 295.934 418.018, 300.725 412.576 C 305.427 407.233, 312.583 393.852, 316.274 383.500 C 318.708 376.672, 323 357.688, 323 353.750 C 323 352.666, 326.404 348.160, 330.566 343.737 C 339.747 333.977, 341.378 331.852, 348.018 321 C 356.842 306.577, 359.574 300.291, 356.080 302.450 C 354.699 303.304, 342.745 320.547, 340.557 324.842 C 338.925 328.043, 326.219 341.553, 325.508 340.842 C 325.320 340.653, 325.586 338.249, 326.101 335.499 C 326.616 332.750, 327.704 324.495, 328.518 317.154 C 329.333 309.814, 330.271 303.370, 330.603 302.833 C 330.934 302.297, 330.913 299.977, 330.554 297.679 C 330.018 294.243, 329.100 292.893, 325.384 290.081 C 322.579 287.960, 319.163 286.404, 316.381 285.982 C 312.133 285.337, 311.747 285.484, 309.037 288.771 C 307.464 290.680, 305.667 294.266, 305.044 296.741 C 301.998 308.836, 284.929 337.936, 279.954 339.515 C 274.084 341.378, 268.852 330.668, 266.999 313 C 265.164 295.501, 266.167 286.634, 272.143 267.528 C 279.095 245.304, 286.907 232.117, 298.385 223.233 C 304.123 218.791, 311.919 221.092, 315.682 228.338 C 317.520 231.877, 317.599 239.874, 315.841 244.282 C 314.351 248.016, 315.342 248.684, 319.460 246.720 C 324.444 244.344, 325.711 239.502, 323.986 229.421 C 322.417 220.248, 320.195 217.190, 312.774 213.998 C 306.903 211.473, 294.155 210.071, 286.976 211.162 M 287.985 379.075 C 277.472 390.720, 272.365 400.545, 273.167 407.581 C 273.447 410.032, 273.890 410.445, 275.931 410.157 C 281.225 409.408, 282.854 408.042, 285.878 401.810 C 287.562 398.339, 290.017 391.675, 291.332 387 C 294.747 374.860, 295.136 373, 294.254 373 C 293.822 373, 291.001 375.734, 287.985 379.075" stroke="none" fill="#ffffff" fill-rule="evenodd"/><path d="M 94.500 1.064 C 85.602 2.580, 72.032 6.944, 64.048 10.857 C 32.692 26.227, 12.009 51.653, 2.715 86.255 L 0.500 94.500 0.500 250 L 0.500 405.500 3.245 415.322 C 14.835 456.783, 43.597 485.379, 85.614 497.217 L 93.500 499.439 245.500 499.749 C 344.628 499.952, 399.788 499.708, 404.077 499.048 C 450.827 491.853, 489.903 454.576, 497.946 409.500 C 498.633 405.650, 499.601 401.719, 500.097 400.764 C 501.266 398.516, 501.304 97.694, 500.136 98.416 C 499.661 98.709, 499.013 96.823, 498.695 94.225 C 497.773 86.680, 493.283 72.495, 489.143 64.048 C 473.878 32.905, 449.031 12.566, 414.262 2.752 L 406.500 0.561 253 0.386 C 168.575 0.291, 97.250 0.595, 94.500 1.064 M 235.324 56.439 C 222.741 60.374, 211.907 73.545, 210.335 86.819 C 209.615 92.899, 209.665 92.827, 203.500 96.737 C 196.530 101.157, 187.747 110.387, 183.741 117.500 C 181.819 120.912, 179.744 123.415, 178.931 123.302 C 152.015 119.587, 138.498 116.893, 123.594 112.276 C 122.194 111.842, 121.903 112.033, 122.498 112.997 C 123.051 113.892, 122.921 114.069, 122.088 113.554 C 121.416 113.139, 121.098 112.568, 121.381 112.286 C 122.141 111.526, 104.618 103.127, 103.820 103.868 C 103.211 104.434, 98.067 123.276, 97.504 127 C 97.380 127.825, 97.011 129.175, 96.686 130 C 96.360 130.825, 94.755 136.675, 93.120 143 C 91.484 149.325, 89.213 157.866, 88.073 161.980 C 84.772 173.891, 84.472 173.338, 95.930 176.481 C 101.392 177.979, 106.411 178.864, 107.085 178.448 C 107.808 178.001, 108.052 178.106, 107.682 178.705 C 106.785 180.157, 134.960 186.842, 143.500 187.204 C 147.350 187.367, 150.970 187.914, 151.544 188.419 C 152.248 189.039, 151.186 192.132, 148.282 197.919 C 142.087 210.268, 140.626 216.943, 140.604 233 C 140.587 245.418, 140.834 247.266, 143.695 256.055 C 148.442 270.642, 157.899 282.880, 170.747 291.062 C 174.461 293.427, 178.982 296.738, 180.794 298.420 C 183.113 300.573, 184.307 301.121, 184.832 300.272 C 185.402 299.350, 186.738 299.443, 190.538 300.669 C 193.794 301.719, 199.490 302.309, 207.107 302.385 L 218.713 302.500 219.314 314 C 219.945 326.095, 222.524 338.187, 225.873 344.751 C 228.238 349.387, 238.271 358.952, 243.244 361.312 C 248.785 363.941, 258.466 366.112, 265.524 366.308 C 269.086 366.407, 272 366.602, 272 366.741 C 272 366.880, 270.478 368.683, 268.618 370.747 C 263.017 376.962, 253.247 393.344, 251.445 399.540 C 248.121 410.974, 251.122 424.055, 258.839 431.772 C 264.365 437.298, 270.177 439.468, 279.500 439.485 C 286.945 439.499, 288.116 439.196, 296.380 435.120 C 311.225 427.798, 320.159 416.718, 329.069 394.578 C 332.840 385.208, 338 366.063, 338 361.444 C 338 359.872, 339.225 357.622, 341.103 355.743 C 352.471 344.376, 365.432 325.148, 372.613 309 L 376.837 299.500 371.724 294.272 C 363.442 285.803, 357.242 284.053, 349.500 288 C 347.342 289.100, 345.496 290, 345.397 290 C 345.298 290, 344.950 288.936, 344.623 287.635 C 343.975 285.053, 333.326 275.232, 328.459 272.729 C 325.794 271.358, 312.949 269, 308.148 269 C 305.618 269, 295.245 279.578, 292.571 284.886 C 291.292 287.424, 289.906 291.075, 289.489 293 C 288.519 297.486, 283.870 307, 282.648 307 C 282.090 307, 281.949 302.861, 282.297 296.750 C 282.753 288.755, 283.743 283.750, 286.798 274 C 292.890 254.554, 299 242.634, 299 250.196 C 299 255.930, 306.910 262.652, 314.892 263.704 C 324.335 264.947, 336.372 256.221, 339.433 245.913 C 341.373 239.382, 341.397 235.575, 339.559 225.970 C 337.773 216.637, 336.976 214.562, 333.180 209.369 C 327.390 201.449, 315.655 196.609, 298 194.860 C 292.225 194.288, 285.610 193.592, 283.299 193.313 C 275.373 192.357, 270.245 195.035, 261.341 204.779 C 251.597 215.442, 241 228.725, 241 230.276 C 241 230.906, 239.540 234.236, 237.756 237.677 C 234.632 243.702, 234.224 244.063, 226.672 247.466 C 215.972 252.289, 214.404 252.169, 211.822 246.330 C 209.327 240.691, 209.649 230.521, 212.497 224.992 C 217.827 214.643, 227.751 206.885, 238 205.055 C 252.553 202.457, 259.915 198.415, 264.575 190.462 C 267.506 185.460, 268.187 178.788, 266.683 169.815 C 265.977 165.608, 265.417 164.846, 261.198 162.348 C 258.614 160.818, 253.125 158.417, 249 157.011 C 241.016 154.290, 241.301 154.702, 242.665 147.883 L 243.188 145.266 250.344 147.769 C 267.017 153.602, 283.427 149.676, 292.033 137.795 C 300.136 126.610, 296.985 108.367, 284.813 96.002 L 280.007 91.120 281.131 86.253 C 283.442 76.242, 277.427 65.065, 266.859 59.734 C 257.702 55.114, 244.106 53.694, 235.324 56.439 M 239.316 75.885 C 236.737 77.092, 234.052 79.475, 232.316 82.098 C 229.812 85.882, 229.500 87.247, 229.500 94.426 C 229.500 98.867, 229.868 103.513, 230.317 104.750 C 231.042 106.744, 230.815 107, 228.317 107.001 C 223.356 107.002, 213.215 112.622, 207.134 118.741 C 202.517 123.386, 200.890 125.951, 198.720 132 C 194.878 142.707, 193.257 151.668, 194.287 156.500 C 195.640 162.847, 200.889 172.696, 204.707 176.047 C 206.634 177.739, 208.050 179.244, 207.855 179.392 C 207.660 179.540, 204.890 180.224, 201.700 180.913 C 188.298 183.808, 171.282 195.553, 165.741 205.735 C 161.802 212.973, 159.704 222.205, 159.660 232.500 C 159.620 241.939, 161.768 251.625, 164.510 254.367 C 165.330 255.187, 166 256.749, 166 257.839 C 166 263.107, 180.110 275.580, 191.719 280.574 C 196.056 282.439, 210.609 283.586, 217.271 282.587 C 221.665 281.928, 221.816 281.784, 222.938 277.205 C 223.572 274.617, 224.298 271.798, 224.552 270.940 C 224.955 269.579, 224.090 269.481, 217.757 270.165 C 211.326 270.860, 209.988 270.696, 206 268.725 C 200.570 266.040, 194.779 258.191, 192.536 250.478 C 190.794 244.482, 190.553 231.652, 192.061 225.112 C 194.677 213.763, 203.334 202.081, 215.430 193.577 C 222.654 188.498, 222.918 188.393, 234.788 185.945 C 246.491 183.532, 248.212 182.645, 247.810 179.238 C 247.529 176.859, 246.698 176.384, 239 174.200 C 234.325 172.874, 229.447 171.289, 228.159 170.677 C 223.430 168.430, 220.246 157.912, 222.051 150.500 C 222.587 148.300, 223.477 144.261, 224.030 141.523 C 225.316 135.152, 228.810 129.906, 234.218 126.228 C 240.634 121.864, 242.641 121.662, 247.399 124.899 C 255.674 130.529, 267.023 132.591, 272.928 129.537 C 279.109 126.341, 278.301 117.383, 271.136 109.658 C 265.463 103.543, 254.793 100.504, 249.181 103.406 C 245.443 105.340, 240.401 105.486, 239.708 103.682 C 239.430 102.956, 239.587 100.369, 240.058 97.932 C 240.528 95.494, 240.932 93.178, 240.956 92.785 C 240.980 92.391, 242.415 90.458, 244.145 88.488 C 248.921 83.048, 256.931 80.331, 259.783 83.183 C 261.429 84.829, 262.358 83.564, 261.631 80.666 C 260.298 75.356, 246.680 72.438, 239.316 75.885 M 0.487 250 C 0.487 333.325, 0.605 367.413, 0.750 325.750 C 0.894 284.088, 0.894 215.913, 0.750 174.250 C 0.605 132.588, 0.487 166.675, 0.487 250 M 252.250 116.262 C 249.912 116.824, 248 117.658, 248 118.116 C 248 119.560, 258.374 126, 260.701 126 C 264.859 126, 266.312 120.312, 263 117 C 260.830 114.830, 258.788 114.690, 252.250 116.262 M 293.750 210.706 C 294.988 210.944, 297.012 210.944, 298.250 210.706 C 299.488 210.467, 298.475 210.272, 296 210.272 C 293.525 210.272, 292.512 210.467, 293.750 210.706 M 267.453 221.250 L 263.500 225.500 267.750 221.547 C 271.702 217.871, 272.460 217, 271.703 217 C 271.540 217, 269.627 218.912, 267.453 221.250 M 267.265 314.250 C 267.134 316.900, 267.266 317.130, 267.982 315.500 C 269.112 312.923, 269.211 311, 268.213 311 C 267.780 311, 267.353 312.462, 267.265 314.250 M 331.946 334.750 L 328.500 338.500 332.250 335.054 C 334.313 333.158, 336 331.471, 336 331.304 C 336 330.540, 335.154 331.260, 331.946 334.750 M 287.437 342.250 L 284.500 345.500 287.750 342.563 C 289.538 340.948, 291 339.485, 291 339.313 C 291 338.540, 290.175 339.221, 287.437 342.250 M 245 343.500 C 246.866 345.425, 248.617 347, 248.892 347 C 249.167 347, 247.866 345.425, 246 343.500 C 244.134 341.575, 242.383 340, 242.108 340 C 241.833 340, 243.134 341.575, 245 343.500 M 291.946 368.750 L 288.500 372.500 292.250 369.054 C 294.313 367.158, 296 365.471, 296 365.304 C 296 364.540, 295.154 365.260, 291.946 368.750" stroke="none" fill="#70c3f4" fill-rule="evenodd"/><path d="M 235.324 56.439 C 222.741 60.374, 211.907 73.545, 210.335 86.819 C 209.615 92.899, 209.665 92.827, 203.500 96.737 C 196.518 101.165, 187.739 110.396, 183.754 117.500 C 180.973 122.459, 179.965 123.468, 177.944 123.315 C 176.239 123.186, 176.069 123.291, 177.381 123.663 C 178.932 124.103, 177.726 125.740, 170.520 132.980 L 161.778 141.763 168.417 143.972 C 175 146.163, 175.051 146.209, 174.470 149.341 C 173.961 152.080, 174.620 157.483, 176.629 167.019 C 177.094 169.229, 176.311 170.118, 170.243 174.263 C 160.091 181.200, 151.614 190.492, 147.511 199.180 C 142.025 210.795, 140.625 217.650, 140.604 233 C 140.587 245.418, 140.834 247.266, 143.695 256.055 C 148.442 270.642, 157.899 282.880, 170.747 291.062 C 174.461 293.427, 178.982 296.738, 180.794 298.420 C 183.113 300.573, 184.307 301.121, 184.832 300.272 C 185.402 299.350, 186.738 299.443, 190.538 300.669 C 193.794 301.719, 199.490 302.309, 207.107 302.385 L 218.713 302.500 219.314 314 C 219.945 326.095, 222.524 338.187, 225.873 344.751 C 228.238 349.387, 238.271 358.952, 243.244 361.312 C 248.785 363.941, 258.466 366.112, 265.524 366.308 C 269.086 366.407, 272 366.602, 272 366.741 C 272 366.880, 270.478 368.683, 268.618 370.747 C 263.017 376.962, 253.247 393.344, 251.445 399.540 C 248.121 410.974, 251.122 424.055, 258.839 431.772 C 264.365 437.298, 270.177 439.468, 279.500 439.485 C 286.945 439.499, 288.116 439.196, 296.380 435.120 C 311.225 427.798, 320.159 416.718, 329.069 394.578 C 332.840 385.208, 338 366.063, 338 361.444 C 338 359.872, 339.225 357.622, 341.103 355.743 C 352.471 344.376, 365.432 325.148, 372.613 309 L 376.837 299.500 371.724 294.272 C 363.442 285.803, 357.242 284.053, 349.500 288 C 347.342 289.100, 345.496 290, 345.397 290 C 345.298 290, 344.950 288.936, 344.623 287.635 C 343.975 285.053, 333.326 275.232, 328.459 272.729 C 325.794 271.358, 312.949 269, 308.148 269 C 305.618 269, 295.245 279.578, 292.571 284.886 C 291.292 287.424, 289.906 291.075, 289.489 293 C 288.519 297.486, 283.870 307, 282.648 307 C 282.090 307, 281.949 302.861, 282.297 296.750 C 282.753 288.755, 283.743 283.750, 286.798 274 C 292.890 254.554, 299 242.634, 299 250.196 C 299 255.930, 306.910 262.652, 314.892 263.704 C 324.335 264.947, 336.372 256.221, 339.433 245.913 C 341.373 239.382, 341.397 235.575, 339.559 225.970 C 337.773 216.637, 336.976 214.562, 333.180 209.369 C 327.390 201.449, 315.655 196.609, 298 194.860 C 292.225 194.288, 285.610 193.592, 283.299 193.313 C 275.373 192.357, 270.245 195.035, 261.341 204.779 C 251.597 215.442, 241 228.725, 241 230.276 C 241 230.906, 239.540 234.236, 237.756 237.677 C 234.632 243.702, 234.224 244.063, 226.672 247.466 C 215.972 252.289, 214.404 252.169, 211.822 246.330 C 209.327 240.691, 209.649 230.521, 212.497 224.992 C 217.827 214.643, 227.751 206.885, 238 205.055 C 252.553 202.457, 259.915 198.415, 264.575 190.462 C 267.506 185.460, 268.187 178.788, 266.683 169.815 C 265.977 165.608, 265.417 164.846, 261.198 162.348 C 258.614 160.818, 253.125 158.417, 249 157.011 C 241.016 154.290, 241.301 154.702, 242.665 147.883 L 243.188 145.266 250.344 147.769 C 267.017 153.602, 283.427 149.676, 292.033 137.795 C 300.136 126.610, 296.985 108.367, 284.813 96.002 L 280.007 91.120 281.131 86.253 C 283.442 76.242, 277.427 65.065, 266.859 59.734 C 257.702 55.114, 244.106 53.694, 235.324 56.439 M 239.316 75.885 C 236.737 77.092, 234.052 79.475, 232.316 82.098 C 229.812 85.882, 229.500 87.247, 229.500 94.426 C 229.500 98.867, 229.868 103.513, 230.317 104.750 C 231.042 106.744, 230.815 107, 228.317 107.001 C 223.356 107.002, 213.215 112.622, 207.134 118.741 C 202.517 123.386, 200.890 125.951, 198.720 132 C 194.878 142.707, 193.257 151.668, 194.287 156.500 C 195.640 162.847, 200.889 172.696, 204.707 176.047 C 206.634 177.739, 208.050 179.244, 207.855 179.392 C 207.660 179.540, 204.890 180.224, 201.700 180.913 C 188.298 183.808, 171.282 195.553, 165.741 205.735 C 161.802 212.973, 159.704 222.205, 159.660 232.500 C 159.620 241.939, 161.768 251.625, 164.510 254.367 C 165.330 255.187, 166 256.749, 166 257.839 C 166 263.107, 180.110 275.580, 191.719 280.574 C 196.056 282.439, 210.609 283.586, 217.271 282.587 C 221.665 281.928, 221.816 281.784, 222.938 277.205 C 223.572 274.617, 224.298 271.798, 224.552 270.940 C 224.955 269.579, 224.090 269.481, 217.757 270.165 C 211.326 270.860, 209.988 270.696, 206 268.725 C 200.570 266.040, 194.779 258.191, 192.536 250.478 C 190.794 244.482, 190.553 231.652, 192.061 225.112 C 194.677 213.763, 203.334 202.081, 215.430 193.577 C 222.654 188.498, 222.918 188.393, 234.788 185.945 C 246.491 183.532, 248.212 182.645, 247.810 179.238 C 247.529 176.859, 246.698 176.384, 239 174.200 C 234.325 172.874, 229.447 171.289, 228.159 170.677 C 223.430 168.430, 220.246 157.912, 222.051 150.500 C 222.587 148.300, 223.477 144.261, 224.030 141.523 C 225.316 135.152, 228.810 129.906, 234.218 126.228 C 240.634 121.864, 242.641 121.662, 247.399 124.899 C 255.674 130.529, 267.023 132.591, 272.928 129.537 C 279.109 126.341, 278.301 117.383, 271.136 109.658 C 265.463 103.543, 254.793 100.504, 249.181 103.406 C 245.443 105.340, 240.401 105.486, 239.708 103.682 C 239.430 102.956, 239.587 100.369, 240.058 97.932 C 240.528 95.494, 240.932 93.178, 240.956 92.785 C 240.980 92.391, 242.415 90.458, 244.145 88.488 C 248.921 83.048, 256.931 80.331, 259.783 83.183 C 261.429 84.829, 262.358 83.564, 261.631 80.666 C 260.298 75.356, 246.680 72.438, 239.316 75.885 M 252.250 116.262 C 249.912 116.824, 248 117.658, 248 118.116 C 248 119.560, 258.374 126, 260.701 126 C 264.859 126, 266.312 120.312, 263 117 C 260.830 114.830, 258.788 114.690, 252.250 116.262 M 281.500 212.208 C 266.569 218.607, 257.799 229.796, 245.996 257.501 C 237.552 277.320, 234.421 293.959, 235.231 314.696 C 235.829 329.998, 237.807 336.189, 244.167 342.670 C 249.901 348.513, 255.978 350.527, 267.502 350.404 C 279.954 350.271, 283.012 348.409, 295.832 333.155 C 298.215 330.320, 300.496 328, 300.901 328 C 301.815 328, 300.573 339.029, 298.055 353.273 L 296.151 364.047 287.252 373.450 C 282.358 378.622, 275.694 387.047, 272.445 392.172 C 267.020 400.730, 266.511 402.023, 266.216 407.996 C 265.960 413.161, 266.306 415.158, 267.899 417.696 C 272.621 425.220, 279.639 426.265, 289.947 420.978 C 298.467 416.608, 303.509 411.209, 309.158 400.407 C 315.355 388.559, 319.249 377.047, 321.970 362.534 L 324.214 350.567 333.112 341.165 C 338.974 334.971, 344.178 328.135, 348.363 321.131 C 358.356 304.409, 359.395 302, 356.615 302 C 355.853 302, 354.444 303.238, 353.483 304.750 C 352.522 306.262, 350.038 309.750, 347.963 312.500 C 345.888 315.250, 343.209 319.399, 342.009 321.721 C 339.901 325.801, 327.134 340.467, 326.362 339.696 C 326.153 339.487, 326.638 334.407, 327.439 328.408 C 332.109 293.420, 332.164 295.397, 326.385 290.566 C 323.514 288.166, 320.042 286.340, 317.194 285.732 C 312.677 284.769, 312.570 284.807, 308.957 288.680 C 306.631 291.174, 305.040 294.044, 304.593 296.552 C 302.968 305.668, 286.033 335.051, 280.248 338.791 C 278.134 340.157, 277.780 340.011, 274.478 336.406 C 270.347 331.896, 268.771 326.949, 268.614 318 C 268.550 314.325, 267.957 310.926, 267.250 310.179 C 264.111 306.860, 266.367 287.848, 272.136 269 C 278.520 248.146, 284.919 236.157, 294.656 226.810 C 302.100 219.662, 306.742 219.330, 312.671 225.518 C 316.600 229.618, 317 230.498, 317 235.050 C 317 237.808, 316.363 241.588, 315.585 243.451 C 314.807 245.313, 314.432 247.099, 314.752 247.418 C 316.167 248.834, 319.394 247.760, 322.221 244.933 C 325.283 241.871, 325.287 241.852, 324.687 233.350 C 323.899 222.183, 321.962 218.283, 315.478 214.809 C 306.172 209.821, 289.964 208.581, 281.500 212.208 M 287.500 380.133 C 279.466 389.543, 275.408 396.132, 273.980 402.085 C 272.535 408.105, 273.142 410, 276.514 410 C 282.029 410, 287.038 401.556, 291.524 384.698 C 292.958 379.307, 293.990 374.494, 293.816 374.001 C 293.642 373.509, 290.800 376.268, 287.500 380.133" stroke="none" fill="#16425b" fill-rule="evenodd"/></svg>