<?xml version="1.0" standalone="no"?>
<!DOCTYPE svg PUBLIC "-//W3C//DTD SVG 20010904//EN"
 "http://www.w3.org/TR/2001/REC-SVG-20010904/DTD/svg10.dtd">
<svg version="1.0" xmlns="http://www.w3.org/2000/svg"
 width="144.000000pt" height="144.000000pt" viewBox="0 0 144.000000 144.000000"
 preserveAspectRatio="xMidYMid meet">

<g transform="translate(0.000000,144.000000) scale(0.100000,-0.100000)"
fill="#000000" stroke="none">
<path d="M1400 977 c-14 -6 -27 -14 -30 -17 -30 -31 -411 -107 -481 -95 -22 4
-40 2 -44 -4 -9 -15 -62 -14 -76 2 -8 8 -37 11 -95 8 -57 -2 -84 1 -84 8 0 6
-20 11 -47 11 -27 0 -75 5 -108 10 -39 6 -61 6 -65 0 -4 -7 -30 -6 -76 4 -38
7 -90 17 -115 20 -40 6 -95 23 -161 51 -17 7 -18 -20 -18 -484 l0 -491 720 0
720 0 0 495 c0 272 -3 495 -7 494 -5 0 -19 -6 -33 -12z m-1090 -214 l12 -56
31 56 c27 48 36 57 59 57 16 0 28 -5 27 -12 0 -7 -24 -51 -53 -98 -46 -75 -56
-85 -81 -85 -26 0 -29 4 -41 55 -7 30 -15 74 -19 98 -6 41 -6 42 24 42 28 0
30 -3 41 -57z m216 10 l18 -47 11 44 11 45 122 3 c111 2 122 1 123 -15 1 -17
2 -17 6 0 3 11 14 17 35 17 28 0 30 -2 24 -27 -3 -16 -9 -50 -12 -76 -7 -47
-6 -49 17 -45 21 3 26 12 40 73 15 68 17 70 48 73 28 3 32 1 27 -15 -3 -10 -8
-36 -11 -58 -10 -64 -26 -95 -56 -110 -69 -36 -147 -3 -135 56 19 91 19 94 5
82 -7 -7 -23 -13 -35 -13 -18 0 -23 -7 -29 -47 -11 -74 -21 -93 -51 -93 -26 0
-26 1 -19 48 3 26 9 57 12 70 4 17 1 22 -16 22 -13 0 -25 9 -31 23 -9 22 -9
22 -9 1 -1 -12 -8 -54 -17 -93 -16 -68 -17 -71 -45 -71 -25 0 -33 6 -48 43
-19 43 -23 41 -35 -15 -5 -23 -12 -28 -37 -28 -24 0 -29 4 -25 18 2 9 7 33 11
52 21 119 26 130 55 130 25 0 31 -6 46 -47z m644 25 c0 -9 3 -9 12 0 7 7 20
12 30 12 14 0 17 -7 14 -42 -2 -23 -9 -44 -15 -46 -6 -2 -9 -7 -7 -11 3 -4
-12 -26 -33 -48 -34 -38 -41 -41 -89 -41 -38 -1 -52 3 -52 13 0 8 5 17 11 21
8 4 7 9 -2 15 -11 6 -10 11 3 26 8 10 19 28 22 41 4 12 13 22 21 22 7 0 20 11
29 25 17 26 56 35 56 13z"/>
</g>
</svg>
